Adsworth-8PTG1XT1db.ufo
<glyph name="B" format="2">
  <advance width="1683"/>
  <outline>
    <contour>
      <point x="168" y="0" type="line"/>
      <point x="168" y="1500" type="line"/>
      <point x="759" y="1500" type="line"/>
      <point x="759" y="0" type="line"/>
    </contour>
    <contour>
      <point x="1149" y="811.0" type="line"/>
      <point x="1281" y="811.0"/>
      <point x="1640" y="628.0"/>
      <point x="1640" y="442.0" type="qcurve" smooth="yes"/>
      <point x="1640" y="415.0" type="line" smooth="yes"/>
      <point x="1640" y="235.0"/>
      <point x="1364" y="0"/>
      <point x="1161" y="0" type="qcurve" smooth="yes"/>
      <point x="469" y="0" type="line"/>
      <point x="469.0" y="373" type="line"/>
      <point x="986" y="373.0" type="line" smooth="yes"/>
      <point x="1019" y="373.0"/>
      <point x="1062.0" y="445.0"/>
      <point x="1062.0" y="510.0" type="qcurve" smooth="yes"/>
      <point x="1062.0" y="519.0" type="line" smooth="yes"/>
      <point x="1062.0" y="581.0"/>
      <point x="1015" y="648.0"/>
      <point x="982" y="648.0" type="qcurve" smooth="yes"/>
      <point x="469.0" y="648" type="line"/>
      <point x="469.0" y="904" type="line"/>
      <point x="933" y="904.0" type="line" smooth="yes"/>
      <point x="974" y="904.0"/>
      <point x="1004" y="967"/>
      <point x="1004" y="1023.0" type="qcurve" smooth="yes"/>
      <point x="1004" y="1031.0" type="line" smooth="yes"/>
      <point x="1004" y="1079"/>
      <point x="971" y="1143.0"/>
      <point x="937" y="1141.0" type="qcurve" smooth="yes"/>
      <point x="469.0" y="1141" type="line"/>
      <point x="469" y="1500" type="line"/>
      <point x="1136" y="1500" type="line" smooth="yes"/>
      <point x="1323" y="1500"/>
      <point x="1565" y="1289"/>
      <point x="1565" y="1121" type="qcurve" smooth="yes"/>
      <point x="1565" y="1105" type="line" smooth="yes"/>
      <point x="1565" y="937"/>
      <point x="1292" y="795.0"/>
      <point x="1143" y="795.0" type="qcurve"/>
    </contour>
  </outline>
</glyph>
<glyph name="F" format="2">
  <advance width="1357"/>
  <outline>
    <contour>
      <point x="168.0" y="0.0" type="line"/>
      <point x="168.0" y="1500.0" type="line"/>
      <point x="792.0" y="1500.0" type="line"/>
      <point x="792.0" y="0.0" type="line"/>
    </contour>
    <contour>
      <point x="1189.0" y="486.0" type="line"/>
      <point x="508.0" y="486.0" type="line"/>
      <point x="508.0" y="876.0" type="line"/>
      <point x="1189.0" y="876.0" type="line"/>
    </contour>
    <contour>
      <point x="1349.0" y="1050.0" type="line"/>
      <point x="508.0" y="1050.0" type="line"/>
      <point x="508.0" y="1500.0" type="line"/>
      <point x="1349.0" y="1500.0" type="line"/>
    </contour>
  </outline>
</glyph>
<glyph name="G" format="2">
  <advance width="2025"/>
  <outline>
    <contour>
      <point x="1131" y="332" type="line" smooth="yes"/>
      <point x="1308" y="323"/>
      <point x="1437" y="408"/>
      <point x="1435" y="477.0" type="qcurve" smooth="yes"/>
      <point x="1434.0" y="545.0" type="line"/>
      <point x="1054.0" y="545.0" type="line"/>
      <point x="1054.0" y="852.0" type="line"/>
      <point x="1995.0" y="852.0" type="line"/>
      <point x="1992.0" y="628.0" type="line" smooth="yes"/>
      <point x="1988" y="298"/>
      <point x="1506.0" y="-31.0"/>
      <point x="1090.0" y="-31.0" type="qcurve" smooth="yes"/>
      <point x="1077.0" y="-31.0" type="line" smooth="yes"/>
      <point x="615.0" y="-31.0"/>
      <point x="102.0" y="379.0"/>
      <point x="102.0" y="741.0" type="qcurve" smooth="yes"/>
      <point x="102.0" y="754.0" type="line" smooth="yes"/>
      <point x="102.0" y="1126.0"/>
      <point x="647.0" y="1530.0"/>
      <point x="1068.0" y="1530.0" type="qcurve" smooth="yes"/>
      <point x="1082.0" y="1530.0" type="line" smooth="yes"/>
      <point x="1478.0" y="1530.0"/>
      <point x="1922.0" y="1251.0"/>
      <point x="1944.0" y="1018.0" type="qcurve" smooth="yes"/>
      <point x="1949" y="992" type="line"/>
      <point x="1385" y="992" type="line"/>
      <point x="1383" y="1007" type="line" smooth="yes"/>
      <point x="1375" y="1064"/>
      <point x="1226" y="1130"/>
      <point x="1103" y="1130" type="qcurve" smooth="yes"/>
      <point x="1028" y="1130.0" type="line" smooth="yes"/>
      <point x="896.0" y="1130.0"/>
      <point x="765.0" y="968.0"/>
      <point x="765" y="841.0" type="qcurve" smooth="yes"/>
      <point x="765" y="654.0" type="line" smooth="yes"/>
      <point x="765" y="496"/>
      <point x="903" y="344"/>
      <point x="1052" y="336.0" type="qcurve" smooth="yes"/>
    </contour>
  </outline>
</glyph>
<glyph name="H" format="2">
  <advance width="2126"/>
  <outline>
    <contour>
      <point x="168.0" y="0.0" type="line"/>
      <point x="168.0" y="1500.0" type="line"/>
      <point x="803.0" y="1500.0" type="line"/>
      <point x="803.0" y="0.0" type="line"/>
    </contour>
    <contour>
      <point x="1323.0" y="0.0" type="line"/>
      <point x="1323.0" y="1500.0" type="line"/>
      <point x="1958.0" y="1500.0" type="line"/>
      <point x="1958.0" y="0.0" type="line"/>
    </contour>
    <contour>
      <point x="1704.0" y="559.0" type="line"/>
      <point x="524.0" y="559.0" type="line"/>
      <point x="524.0" y="1017.0" type="line"/>
      <point x="1704.0" y="1017.0" type="line"/>
    </contour>
  </outline>
</glyph>
<glyph name="S" format="2">
  <advance width="1659"/>
  <outline>
    <contour>
      <point x="1065.0" y="398.0" type="line" smooth="yes"/>
      <point x="1065.0" y="392.0"/>
      <point x="992.0" y="426.0"/>
      <point x="663.0" y="485.0" type="qcurve" smooth="yes"/>
      <point x="254.0" y="565.0"/>
      <point x="31.0" y="841.0"/>
      <point x="31.0" y="1028.0" type="qcurve" smooth="yes"/>
      <point x="31.0" y="1053.0" type="line" smooth="yes"/>
      <point x="31.0" y="1241.0"/>
      <point x="422.0" y="1530.0"/>
      <point x="804.0" y="1530.0" type="qcurve" smooth="yes"/>
      <point x="816.0" y="1530.0" type="line" smooth="yes"/>
      <point x="1216.0" y="1530.0"/>
      <point x="1597.0" y="1313.0"/>
      <point x="1580.0" y="1119.0" type="qcurve" smooth="yes"/>
      <point x="1580.0" y="1056.0" type="line"/>
      <point x="1012.0" y="1056.0" type="line"/>
      <point x="1012.0" y="1165.0" type="line" smooth="yes"/>
      <point x="1012.0" y="1129.0"/>
      <point x="956.0" y="1103.0"/>
      <point x="811.0" y="1103.0" type="qcurve" smooth="yes"/>
      <point x="812.0" y="1103.0" type="line" smooth="yes"/>
      <point x="692.0" y="1103.0"/>
      <point x="618.0" y="1057.0"/>
      <point x="618.0" y="1091.0" type="qcurve" smooth="yes"/>
      <point x="618.0" y="1058.0" type="line" smooth="yes"/>
      <point x="618.0" y="1093.0"/>
      <point x="682.0" y="1064.0"/>
      <point x="998.0" y="1035.0" type="qcurve" smooth="yes"/>
      <point x="1364.0" y="994.0"/>
      <point x="1647.0" y="716.0"/>
      <point x="1647.0" y="488.0" type="qcurve" smooth="yes"/>
      <point x="1647.0" y="464.0" type="line" smooth="yes"/>
      <point x="1647.0" y="258.0"/>
      <point x="1242.0" y="-33.0"/>
      <point x="837.0" y="-33.0" type="qcurve" smooth="yes"/>
      <point x="832.0" y="-33.0" type="line" smooth="yes"/>
      <point x="405.0" y="-33.0"/>
      <point x="5.0" y="221.0"/>
      <point x="10.0" y="396.0" type="qcurve" smooth="yes"/>
      <point x="10.0" y="496.0" type="line"/>
      <point x="555.0" y="494.0" type="line"/>
      <point x="555.0" y="431.0" type="line" smooth="yes"/>
      <point x="555.0" y="399.0"/>
      <point x="666.0" y="358.0"/>
      <point x="823.0" y="358.0" type="qcurve" smooth="yes"/>
      <point x="827.0" y="358.0" type="line" smooth="yes"/>
      <point x="999.0" y="358.0"/>
      <point x="1065.0" y="399.0"/>
      <point x="1065.0" y="393.0" type="qcurve" smooth="yes"/>
    </contour>
  </outline>
</glyph>
<glyph name="U" format="2">
  <advance width="1943"/>
  <outline>
    <contour>
      <point x="93.0" y="1500.0" type="line"/>
      <point x="703.0" y="1500.0" type="line"/>
      <point x="703.0" y="552.0" type="line" smooth="yes"/>
      <point x="703.0" y="515.0"/>
      <point x="833.0" y="446.0"/>
      <point x="947.0" y="446.0" type="qcurve" smooth="yes"/>
      <point x="949.0" y="446.0" type="line" smooth="yes"/>
      <point x="1068.0" y="446.0"/>
      <point x="1199.0" y="531.0"/>
      <point x="1199.0" y="552.0" type="qcurve" smooth="yes"/>
      <point x="1199.0" y="1500.0" type="line"/>
      <point x="1801.0" y="1500.0" type="line"/>
      <point x="1793.0" y="663.0" type="line" smooth="yes"/>
      <point x="1791.0" y="316.0"/>
      <point x="1370.0" y="-33.0"/>
      <point x="955.0" y="-33.0" type="qcurve" smooth="yes"/>
      <point x="943.0" y="-33.0" type="line" smooth="yes"/>
      <point x="554.0" y="-33.0"/>
      <point x="93.0" y="345.0"/>
      <point x="93.0" y="693.0" type="qcurve" smooth="yes"/>
    </contour>
  </outline>
</glyph>
<glyph name="W" format="2">
  <advance width="2389"/>
  <outline>
    <contour>
      <point x="475.0" y="0.0" type="line"/>
      <point x="-40.0" y="1500.0" type="line"/>
      <point x="609.0" y="1500.0" type="line"/>
      <point x="812.0" y="807.0" type="line"/>
      <point x="962.0" y="1500.0" type="line"/>
      <point x="1482.0" y="1500.0" type="line"/>
      <point x="1655.0" y="810.0" type="line"/>
      <point x="1844.0" y="1500.0" type="line"/>
      <point x="2429.0" y="1500.0" type="line"/>
      <point x="1945.0" y="0.0" type="line"/>
      <point x="1395.0" y="0.0" type="line"/>
      <point x="1219.0" y="683.0" type="line"/>
      <point x="1195.0" y="683.0" type="line"/>
      <point x="1016.0" y="0.0" type="line"/>
    </contour>
  </outline>
</glyph>
<glyph name="X" format="2">
  <advance width="1588"/>
  <outline>
    <contour>
      <point x="-88.0" y="0.0" type="line"/>
      <point x="551.0" y="880.0" type="line"/>
      <point x="641.0" y="922.0" type="line"/>
      <point x="1025.0" y="1500.0" type="line"/>
      <point x="1635.0" y="1500.0" type="line"/>
      <point x="1061.0" y="674.0" type="line"/>
      <point x="969.0" y="629.0" type="line"/>
      <point x="522.0" y="0.0" type="line"/>
    </contour>
    <contour>
      <point x="970.0" y="0.0" type="line"/>
      <point x="593.0" y="558.0" type="line"/>
      <point x="560.0" y="592.0" type="line"/>
      <point x="-67.0" y="1500.0" type="line"/>
      <point x="644.0" y="1500.0" type="line"/>
      <point x="976.0" y="973.0" type="line"/>
      <point x="1013.0" y="944.0" type="line"/>
      <point x="1672.0" y="0.0" type="line"/>
    </contour>
  </outline>
</glyph>
<glyph name="Z" format="2">
  <advance width="1502"/>
  <outline>
    <contour>
      <point x="1484.0" y="0.0" type="line"/>
      <point x="14.0" y="0.0" type="line"/>
      <point x="9.0" y="425.0" type="line"/>
      <point x="674.0" y="1050.0" type="line"/>
      <point x="44.0" y="1050.0" type="line"/>
      <point x="44.0" y="1500.0" type="line"/>
      <point x="1434.0" y="1500.0" type="line"/>
      <point x="1434.0" y="1075.0" type="line"/>
      <point x="762.0" y="450.0" type="line"/>
      <point x="1484.0" y="450.0" type="line"/>
    </contour>
  </outline>
</glyph>
<glyph name="a" format="2">
  <advance width="1576"/>
  <outline>
    <contour>
      <point x="123.0" y="966.0" type="line"/>
      <point x="206.0" y="1000.0"/>
      <point x="564.0" y="1081.0"/>
      <point x="795.0" y="1081.0" type="qcurve" smooth="yes"/>
      <point x="1148.0" y="1081.0"/>
      <point x="1451.0" y="866.0"/>
      <point x="1456.0" y="642.0" type="qcurve" smooth="yes"/>
      <point x="1460.0" y="1.0" type="line"/>
      <point x="921.0" y="1.0" type="line"/>
      <point x="911.0" y="603.0" type="line" smooth="yes"/>
      <point x="910.0" y="640.0"/>
      <point x="817.0" y="744.0"/>
      <point x="662.0" y="744.0" type="qcurve" smooth="yes"/>
      <point x="522.0" y="744.0"/>
      <point x="245.0" y="700.0"/>
      <point x="178.0" y="676.0" type="qcurve"/>
    </contour>
    <contour>
      <point x="1133.0" y="324.0" type="line"/>
      <point x="1094.0" y="202.0"/>
      <point x="747.0" y="-22.0"/>
      <point x="582.0" y="-22.0" type="qcurve" smooth="yes"/>
      <point x="335.0" y="-22.0"/>
      <point x="8.0" y="160.0"/>
      <point x="8.0" y="328.0" type="qcurve" smooth="yes"/>
      <point x="8.0" y="482.0"/>
      <point x="315.0" y="679.0"/>
      <point x="594.0" y="679.0" type="qcurve" smooth="yes"/>
      <point x="792.0" y="679.0"/>
      <point x="1049.0" y="603.0"/>
      <point x="1133.0" y="531.0" type="qcurve"/>
      <point x="1133.0" y="417.0" type="line"/>
      <point x="1055.0" y="435.0"/>
      <point x="807.0" y="455.0"/>
      <point x="783.0" y="455.0" type="qcurve" smooth="yes"/>
      <point x="688.0" y="455.0"/>
      <point x="515.0" y="422.0"/>
      <point x="515.0" y="364.0" type="qcurve" smooth="yes"/>
      <point x="515.0" y="286.0"/>
      <point x="664.0" y="264.0"/>
      <point x="784.0" y="264.0" type="qcurve" smooth="yes"/>
      <point x="833.0" y="264.0"/>
      <point x="1038.0" y="316.0"/>
      <point x="1133.0" y="423.0" type="qcurve"/>
    </contour>
  </outline>
</glyph>
<glyph name="asciicircum" format="2">
  <advance width="1736"/>
  <outline>
    <contour>
      <point x="1150.0" y="1513.0" type="line"/>
      <point x="1616.0" y="833.0" type="line"/>
      <point x="1051.0" y="833.0" type="line"/>
      <point x="867.0" y="1050.0" type="line"/>
      <point x="684.0" y="833.0" type="line"/>
      <point x="120.0" y="833.0" type="line"/>
      <point x="590.0" y="1513.0" type="line"/>
    </contour>
  </outline>
</glyph>
<glyph name="asterisk" format="2">
  <advance width="1355"/>
  <outline>
    <contour>
      <point x="729.0" y="695.0" type="line"/>
      <point x="546.0" y="390.0" type="line"/>
      <point x="138.0" y="692.0" type="line"/>
      <point x="374.0" y="937.0" type="line"/>
      <point x="64.0" y="940.0" type="line"/>
      <point x="228.0" y="1438.0" type="line"/>
      <point x="505.0" y="1325.0" type="line"/>
      <point x="473.0" y="1602.0" type="line"/>
      <point x="985.0" y="1602.0" type="line"/>
      <point x="950.0" y="1325.0" type="line"/>
      <point x="1191.0" y="1435.0" type="line"/>
      <point x="1355.0" y="941.0" type="line"/>
      <point x="1084.0" y="937.0" type="line"/>
      <point x="1322.0" y="700.0" type="line"/>
      <point x="910.0" y="398.0" type="line"/>
    </contour>
  </outline>
</glyph>
<glyph name="b" format="2">
  <advance width="1853"/>
  <outline>
    <contour>
      <point x="115.0" y="2.0" type="line"/>
      <point x="115.0" y="1540.0" type="line"/>
      <point x="695.0" y="1540.0" type="line"/>
      <point x="667.0" y="2.0" type="line"/>
    </contour>
    <contour>
      <point x="656" y="811.0" type="line" smooth="yes"/>
      <point x="656" y="882.0"/>
      <point x="932" y="1082.0"/>
      <point x="1177" y="1082.0" type="qcurve" smooth="yes"/>
      <point x="1193" y="1082.0" type="line" smooth="yes"/>
      <point x="1475" y="1082.0"/>
      <point x="1793" y="751.0"/>
      <point x="1793" y="530.0" type="qcurve" smooth="yes"/>
      <point x="1793" y="524.0" type="line" smooth="yes"/>
      <point x="1793" y="293.0"/>
      <point x="1475" y="-23.0"/>
      <point x="1198" y="-23.0" type="qcurve" smooth="yes"/>
      <point x="1190" y="-23.0" type="line" smooth="yes"/>
      <point x="934" y="-23.0"/>
      <point x="656" y="158.0"/>
      <point x="656" y="250.0" type="qcurve" smooth="yes"/>
    </contour>
    <contour>
      <point x="666" y="622.0" type="qcurve" smooth="yes"/>
      <point x="666" y="429.0" type="line" smooth="yes"/>
      <point x="666" y="352.0"/>
      <point x="839" y="292.0"/>
      <point x="934" y="292.0" type="qcurve" smooth="yes"/>
      <point x="947" y="292.0" type="line" smooth="yes"/>
      <point x="1083" y="292.0"/>
      <point x="1243" y="356.0"/>
      <point x="1243" y="439.0" type="qcurve" smooth="yes"/>
      <point x="1243" y="621.0" type="line" smooth="yes"/>
      <point x="1243" y="709.0"/>
      <point x="1061" y="754.0"/>
      <point x="927" y="754.0" type="qcurve" smooth="yes"/>
      <point x="916" y="754.0" type="line" smooth="yes"/>
      <point x="819" y="754.0"/>
      <point x="666" y="666.0"/>
    </contour>
  </outline>
</glyph>
<glyph name="braceright" format="2">
  <advance width="1040"/>
  <outline>
    <contour>
      <point x="989.0" y="408.0" type="qcurve"/>
      <point x="992.0" y="815.0" type="line"/>
      <point x="821.0" y="817.0"/>
      <point x="782.0" y="817.0"/>
      <point x="782.0" y="854.0" type="qcurve" smooth="yes"/>
      <point x="782.0" y="884.0"/>
      <point x="814.0" y="963.0"/>
      <point x="836.0" y="1005.0" type="qcurve" smooth="yes"/>
      <point x="859.0" y="1049.0"/>
      <point x="925.0" y="1196.0"/>
      <point x="925.0" y="1306.0" type="qcurve" smooth="yes"/>
      <point x="925.0" y="1416.0"/>
      <point x="479.0" y="1576.0"/>
      <point x="160.0" y="1552.0" type="qcurve"/>
      <point x="-7.0" y="1214.0" type="line"/>
      <point x="251.0" y="1226.0"/>
      <point x="401.0" y="1194.0"/>
      <point x="401.0" y="1183.0" type="qcurve" smooth="yes"/>
      <point x="401.0" y="1094.0"/>
      <point x="334.0" y="976.0"/>
      <point x="310.0" y="940.0" type="qcurve" smooth="yes"/>
      <point x="284.0" y="900.0"/>
      <point x="230.0" y="800.0"/>
      <point x="230.0" y="709.0" type="qcurve" smooth="yes"/>
      <point x="230.0" y="706.0"/>
      <point x="335.0" y="627.0"/>
      <point x="389.0" y="599.0" type="qcurve"/>
      <point x="335.0" y="573.0"/>
      <point x="230.0" y="494.0"/>
      <point x="230.0" y="482.0" type="qcurve" smooth="yes"/>
      <point x="230.0" y="384.0"/>
      <point x="287.0" y="272.0"/>
      <point x="310.0" y="224.0" type="qcurve" smooth="yes"/>
      <point x="330.0" y="181.0"/>
      <point x="381.0" y="60.0"/>
      <point x="381.0" y="-28.0" type="qcurve" smooth="yes"/>
      <point x="381.0" y="-34.0"/>
      <point x="230.0" y="-91.0"/>
      <point x="9.0" y="-85.0" type="qcurve"/>
      <point x="194.0" y="-440.0" type="line"/>
      <point x="557.0" y="-419.0"/>
      <point x="922.0" y="-206.0"/>
      <point x="922.0" y="-66.0" type="qcurve" smooth="yes"/>
      <point x="922.0" y="67.0"/>
      <point x="856.0" y="200.0"/>
      <point x="833.0" y="238.0" type="qcurve" smooth="yes"/>
      <point x="812.0" y="273.0"/>
      <point x="780.0" y="342.0"/>
      <point x="780.0" y="369.0" type="qcurve" smooth="yes"/>
      <point x="780.0" y="399.0"/>
      <point x="818.0" y="409.0"/>
    </contour>
  </outline>
</glyph>
<glyph name="c" format="2">
  <advance width="1603"/>
  <outline>
    <contour>
      <point x="1600.0" y="418.0" type="line"/>
      <point x="1596.0" y="351.0" type="line" smooth="yes"/>
      <point x="1579.0" y="188.0"/>
      <point x="1219.0" y="-25.0"/>
      <point x="872.0" y="-25.0" type="qcurve" smooth="yes"/>
      <point x="861.0" y="-25.0" type="line" smooth="yes"/>
      <point x="487.0" y="-25.0"/>
      <point x="60.0" y="259.0"/>
      <point x="60.0" y="513.0" type="qcurve" smooth="yes"/>
      <point x="60.0" y="524.0" type="line" smooth="yes"/>
      <point x="60.0" y="785.0"/>
      <point x="493.0" y="1082.0"/>
      <point x="852.0" y="1082.0" type="qcurve" smooth="yes"/>
      <point x="864.0" y="1082.0" type="line" smooth="yes"/>
      <point x="1222.0" y="1082.0"/>
      <point x="1580.0" y="855.0"/>
      <point x="1596.0" y="682.0" type="qcurve" smooth="yes"/>
      <point x="1598.0" y="604.0" type="line"/>
      <point x="1089.0" y="605.0" type="line"/>
      <point x="1087.0" y="687.0" type="line" smooth="yes"/>
      <point x="1084.0" y="706.0"/>
      <point x="1008.0" y="740.0"/>
      <point x="884.0" y="740.0" type="qcurve" smooth="yes"/>
      <point x="887.0" y="740.0" type="line" smooth="yes"/>
      <point x="742.0" y="740.0"/>
      <point x="661.0" y="699.0"/>
      <point x="661.0" y="643.0" type="qcurve" smooth="yes"/>
      <point x="661.0" y="420.0" type="line" smooth="yes"/>
      <point x="661.0" y="361.0"/>
      <point x="742.0" y="305.0"/>
      <point x="883.0" y="305.0" type="qcurve" smooth="yes"/>
      <point x="879.0" y="305.0" type="line" smooth="yes"/>
      <point x="1002.0" y="305.0"/>
      <point x="1083.0" y="335.0"/>
      <point x="1092.0" y="370.0" type="qcurve" smooth="yes"/>
      <point x="1095.0" y="420.0" type="line"/>
    </contour>
  </outline>
</glyph>
<glyph name="colon" format="2">
  <advance width="1080"/>
  <outline>
    <contour>
      <point x="537.0" y="-32.0" type="line" smooth="yes"/>
      <point x="668.0" y="-32.0"/>
      <point x="830.0" y="127.0"/>
      <point x="830.0" y="243.0" type="qcurve" smooth="yes"/>
      <point x="830.0" y="260.0" type="line" smooth="yes"/>
      <point x="830.0" y="376.0"/>
      <point x="671.0" y="538.0"/>
      <point x="537.0" y="538.0" type="qcurve" smooth="yes"/>
      <point x="532.0" y="538.0" type="line" smooth="yes"/>
      <point x="408.0" y="538.0"/>
      <point x="253.0" y="376.0"/>
      <point x="253.0" y="260.0" type="qcurve" smooth="yes"/>
      <point x="253.0" y="243.0" type="line" smooth="yes"/>
      <point x="253.0" y="124.0"/>
      <point x="405.0" y="-32.0"/>
      <point x="532.0" y="-32.0" type="qcurve" smooth="yes"/>
    </contour>
    <contour>
      <point x="535.0" y="524.0" type="line" smooth="yes"/>
      <point x="666.0" y="524.0"/>
      <point x="829.0" y="683.0"/>
      <point x="829.0" y="799.0" type="qcurve" smooth="yes"/>
      <point x="829.0" y="816.0" type="line" smooth="yes"/>
      <point x="829.0" y="932.0"/>
      <point x="669.0" y="1094.0"/>
      <point x="535.0" y="1094.0" type="qcurve" smooth="yes"/>
      <point x="530.0" y="1094.0" type="line" smooth="yes"/>
      <point x="406.0" y="1094.0"/>
      <point x="251.0" y="932.0"/>
      <point x="251.0" y="816.0" type="qcurve" smooth="yes"/>
      <point x="251.0" y="799.0" type="line" smooth="yes"/>
      <point x="251.0" y="680.0"/>
      <point x="403.0" y="524.0"/>
      <point x="530.0" y="524.0" type="qcurve" smooth="yes"/>
    </contour>
  </outline>
</glyph>
<glyph name="e" format="2">
  <advance width="1663"/>
  <outline>
    <contour>
      <point x="1611" y="328" type="line"/>
      <point x="1608" y="307" type="line" smooth="yes"/>
      <point x="1583" y="158"/>
      <point x="1210" y="-25"/>
      <point x="863" y="-25" type="qcurve" smooth="yes"/>
      <point x="854.0" y="-25.0" type="line" smooth="yes"/>
      <point x="507.0" y="-25.0"/>
      <point x="60.0" y="253.0"/>
      <point x="60.0" y="513.0" type="qcurve" smooth="yes"/>
      <point x="60.0" y="533.0" type="line" smooth="yes"/>
      <point x="60.0" y="781.0"/>
      <point x="494.0" y="1082.0"/>
      <point x="837.0" y="1082.0" type="qcurve" smooth="yes"/>
      <point x="861.0" y="1082.0" type="line" smooth="yes"/>
      <point x="1239.0" y="1082.0"/>
      <point x="1593" y="777"/>
      <point x="1604.0" y="566.0" type="qcurve" smooth="yes"/>
      <point x="1609.0" y="468.0" type="line"/>
      <point x="217.0" y="468.0" type="line"/>
      <point x="217.0" y="606.0" type="line"/>
      <point x="1111.0" y="606.0" type="line"/>
      <point x="1108.0" y="664.0" type="line" smooth="yes"/>
      <point x="1105" y="719"/>
      <point x="1005" y="782"/>
      <point x="931" y="782.0" type="qcurve" smooth="yes"/>
      <point x="802.0" y="782.0" type="line" smooth="yes"/>
      <point x="687" y="782"/>
      <point x="599" y="714"/>
      <point x="599.0" y="625.0" type="qcurve" smooth="yes"/>
      <point x="599.0" y="428.0" type="line" smooth="yes"/>
      <point x="599.0" y="340.0"/>
      <point x="742" y="271"/>
      <point x="855.0" y="271.0" type="qcurve" smooth="yes"/>
      <point x="901" y="271" type="line" smooth="yes"/>
      <point x="1049.0" y="271.0"/>
      <point x="1123" y="285"/>
      <point x="1131" y="308" type="qcurve" smooth="yes"/>
      <point x="1139" y="330" type="line"/>
    </contour>
  </outline>
</glyph>
<glyph name="eight" format="2">
  <advance width="1619"/>
  <outline>
    <contour>
      <point x="798.0" y="-27.0" type="line" smooth="yes"/>
      <point x="479.0" y="-27.0"/>
      <point x="18.0" y="227.0"/>
      <point x="18.0" y="430.0" type="qcurve" smooth="yes"/>
      <point x="18.0" y="444.0" type="line" smooth="yes"/>
      <point x="18.0" y="641.0"/>
      <point x="473.0" y="896.0"/>
      <point x="790.0" y="896.0" type="qcurve" smooth="yes"/>
      <point x="802.0" y="896.0" type="line" smooth="yes"/>
      <point x="1129.0" y="896.0"/>
      <point x="1601.0" y="641.0"/>
      <point x="1601.0" y="444.0" type="qcurve" smooth="yes"/>
      <point x="1601.0" y="430.0" type="line" smooth="yes"/>
      <point x="1601.0" y="227.0"/>
      <point x="1136.0" y="-27.0"/>
      <point x="808.0" y="-27.0" type="qcurve" smooth="yes"/>
    </contour>
    <contour>
      <point x="799.0" y="344.0" type="line" smooth="yes"/>
      <point x="929.0" y="344.0"/>
      <point x="1078.0" y="413.0"/>
      <point x="1078.0" y="469.0" type="qcurve" smooth="yes"/>
      <point x="1078.0" y="477.0" type="line" smooth="yes"/>
      <point x="1078.0" y="535.0"/>
      <point x="931.0" y="606.0"/>
      <point x="799.0" y="606.0" type="qcurve" smooth="yes"/>
      <point x="794.0" y="606.0" type="line" smooth="yes"/>
      <point x="670.0" y="606.0"/>
      <point x="529.0" y="535.0"/>
      <point x="529.0" y="477.0" type="qcurve" smooth="yes"/>
      <point x="529.0" y="469.0" type="line" smooth="yes"/>
      <point x="529.0" y="413.0"/>
      <point x="668.0" y="344.0"/>
      <point x="794.0" y="344.0" type="qcurve" smooth="yes"/>
    </contour>
    <contour>
      <point x="798.0" y="675.0" type="line" smooth="yes"/>
      <point x="513.0" y="675.0"/>
      <point x="99.0" y="901.0"/>
      <point x="99.0" y="1080.0" type="qcurve" smooth="yes"/>
      <point x="99.0" y="1108.0" type="line" smooth="yes"/>
      <point x="99.0" y="1288.0"/>
      <point x="507.0" y="1523.0"/>
      <point x="790.0" y="1523.0" type="qcurve" smooth="yes"/>
      <point x="802.0" y="1523.0" type="line" smooth="yes"/>
      <point x="1094.0" y="1523.0"/>
      <point x="1519.0" y="1288.0"/>
      <point x="1519.0" y="1108.0" type="qcurve" smooth="yes"/>
      <point x="1519.0" y="1080.0" type="line" smooth="yes"/>
      <point x="1519.0" y="901.0"/>
      <point x="1099.0" y="675.0"/>
      <point x="809.0" y="675.0" type="qcurve" smooth="yes"/>
    </contour>
    <contour>
      <point x="804.0" y="936.0" type="line" smooth="yes"/>
      <point x="906.0" y="936.0"/>
      <point x="1036.0" y="987.0"/>
      <point x="1036.0" y="1029.0" type="qcurve" smooth="yes"/>
      <point x="1036.0" y="1036.0" type="line" smooth="yes"/>
      <point x="1036.0" y="1078.0"/>
      <point x="910.0" y="1131.0"/>
      <point x="804.0" y="1131.0" type="qcurve" smooth="yes"/>
      <point x="801.0" y="1131.0" type="line" smooth="yes"/>
      <point x="706.0" y="1131.0"/>
      <point x="582.0" y="1078.0"/>
      <point x="582.0" y="1036.0" type="qcurve" smooth="yes"/>
      <point x="582.0" y="1029.0" type="line" smooth="yes"/>
      <point x="582.0" y="987.0"/>
      <point x="704.0" y="936.0"/>
      <point x="801.0" y="936.0" type="qcurve" smooth="yes"/>
    </contour>
  </outline>
</glyph>
<glyph name="f" format="2">
  <advance width="855"/>
  <outline>
    <contour>
      <point x="908.0" y="649.0" type="line"/>
      <point x="-30.0" y="649.0" type="line"/>
      <point x="-30.0" y="1030.0" type="line"/>
      <point x="908.0" y="1030.0" type="line"/>
    </contour>
    <contour>
      <point x="634.0" y="1068.0" type="qcurve" smooth="yes"/>
      <point x="644.0" y="0.0" type="line"/>
      <point x="88.0" y="0.0" type="line"/>
      <point x="88.0" y="1138.0" type="line" smooth="yes"/>
      <point x="88.0" y="1335.0"/>
      <point x="388.0" y="1605.0"/>
      <point x="610.0" y="1605.0" type="qcurve" smooth="yes"/>
      <point x="727.0" y="1605.0"/>
      <point x="908.0" y="1577.0"/>
      <point x="944.0" y="1557.0" type="qcurve"/>
      <point x="938.0" y="1253.0" type="line"/>
      <point x="917.0" y="1258.0"/>
      <point x="819.0" y="1265.0"/>
      <point x="784.0" y="1265.0" type="qcurve" smooth="yes"/>
      <point x="703.0" y="1265.0"/>
      <point x="633.0" y="1181.0"/>
    </contour>
  </outline>
</glyph>
<glyph name="five" format="2">
  <advance width="1412"/>
  <outline>
    <contour>
      <point x="813.0" y="1079.0" type="line" smooth="yes"/>
      <point x="1170.0" y="1079.0"/>
      <point x="1401.0" y="776.0"/>
      <point x="1401.0" y="530.0" type="qcurve" smooth="yes"/>
      <point x="1401.0" y="500.0" type="line" smooth="yes"/>
      <point x="1401.0" y="269.0"/>
      <point x="1007.0" y="-25.0"/>
      <point x="704.0" y="-25.0" type="qcurve" smooth="yes"/>
      <point x="675.0" y="-25.0" type="line" smooth="yes"/>
      <point x="385.0" y="-25.0"/>
      <point x="15.0" y="194.0"/>
      <point x="4.0" y="352.0" type="qcurve" smooth="yes"/>
      <point x="-1.0" y="528.0" type="line"/>
      <point x="554.0" y="530.0" type="line"/>
      <point x="554.0" y="375.0" type="line" smooth="yes"/>
      <point x="554" y="358"/>
      <point x="650.0" y="331.0"/>
      <point x="703.0" y="331.0" type="qcurve" smooth="yes"/>
      <point x="703.0" y="331.0" type="line" smooth="yes"/>
      <point x="760.0" y="331.0"/>
      <point x="857.0" y="340.0"/>
      <point x="857.0" y="422.0" type="qcurve" smooth="yes"/>
      <point x="857.0" y="618.0" type="line" smooth="yes"/>
      <point x="857.0" y="713.0"/>
      <point x="781.0" y="722.0"/>
      <point x="721.0" y="722.0" type="qcurve" smooth="yes"/>
      <point x="684.0" y="722.0" type="line" smooth="yes"/>
      <point x="623.0" y="722.0"/>
      <point x="532.0" y="634.0"/>
      <point x="541.0" y="600.0" type="qcurve"/>
      <point x="3.0" y="602.0" type="line"/>
      <point x="26.0" y="1500.0" type="line"/>
      <point x="1285.0" y="1500.0" type="line"/>
      <point x="1285.0" y="1085.0" type="line"/>
      <point x="407.0" y="1085.0" type="line"/>
      <point x="386.0" y="972.0" type="line"/>
      <point x="421.0" y="1011.0"/>
      <point x="646.0" y="1079.0"/>
      <point x="749.0" y="1079.0" type="qcurve" smooth="yes"/>
    </contour>
  </outline>
</glyph>
<glyph name="four" format="2">
  <advance width="1517"/>
  <outline>
    <contour>
      <point x="777.0" y="0.0" type="line"/>
      <point x="837.0" y="1504.0" type="line"/>
      <point x="1297.0" y="1501.0" type="line"/>
      <point x="1297.0" y="2.0" type="line"/>
    </contour>
    <contour>
      <point x="1473.0" y="575.0" type="line"/>
      <point x="1473.0" y="256.0" type="line"/>
      <point x="59.0" y="256.0" type="line"/>
      <point x="13.0" y="670.0" type="line"/>
      <point x="746.0" y="1492.0" type="line"/>
      <point x="1029.0" y="1309.0" type="line"/>
      <point x="476.0" y="577.0" type="line"/>
    </contour>
  </outline>
</glyph>
<glyph name="g" format="2">
  <advance width="1888"/>
  <outline>
    <contour>
      <point x="1267.0" y="844" type="qcurve" smooth="yes"/>
      <point x="1267.0" y="286" type="line" smooth="yes"/>
      <point x="1267.0" y="216"/>
      <point x="982.0" y="48"/>
      <point x="757.0" y="48" type="qcurve" smooth="yes"/>
      <point x="705.0" y="48" type="line" smooth="yes"/>
      <point x="379.0" y="48"/>
      <point x="60.0" y="309"/>
      <point x="60.0" y="567" type="qcurve" smooth="yes"/>
      <point x="60.0" y="590" type="line" smooth="yes"/>
      <point x="60.0" y="814"/>
      <point x="422.0" y="1083.0"/>
      <point x="719.0" y="1083.0" type="qcurve" smooth="yes"/>
      <point x="772.0" y="1083.0" type="line" smooth="yes"/>
      <point x="1000.0" y="1083.0"/>
      <point x="1267.0" y="933"/>
    </contour>
    <contour>
      <point x="1238.0" y="635" type="line" smooth="yes"/>
      <point x="1238.0" y="713"/>
      <point x="1064.0" y="755"/>
      <point x="928.0" y="755" type="qcurve" smooth="yes"/>
      <point x="920.0" y="755" type="line" smooth="yes"/>
      <point x="788.0" y="755"/>
      <point x="621.0" y="701"/>
      <point x="621.0" y="635" type="qcurve" smooth="yes"/>
      <point x="621.0" y="467" type="line" smooth="yes"/>
      <point x="621.0" y="387"/>
      <point x="791.0" y="338"/>
      <point x="920.0" y="338" type="qcurve" smooth="yes"/>
      <point x="928.0" y="338" type="line" smooth="yes"/>
      <point x="1053.0" y="338"/>
      <point x="1238.0" y="385"/>
      <point x="1238.0" y="459" type="qcurve" smooth="yes"/>
    </contour>
    <contour>
      <point x="196.0" y="-73.0" type="line"/>
      <point x="270.0" y="-88.0"/>
      <point x="478" y="-126"/>
      <point x="679.0" y="-126.0" type="qcurve" smooth="yes"/>
      <point x="998" y="-126.0"/>
      <point x="1231" y="19"/>
      <point x="1236.0" y="208.0" type="qcurve" smooth="yes"/>
      <point x="1258.0" y="1040.0" type="line"/>
      <point x="1773.0" y="1040.0" type="line"/>
      <point x="1773.0" y="347.0" type="line" smooth="yes"/>
      <point x="1773" y="-149"/>
      <point x="1176.0" y="-490.0"/>
      <point x="841" y="-490" type="qcurve" smooth="yes"/>
      <point x="475.0" y="-490"/>
      <point x="242.0" y="-453.0"/>
      <point x="158.0" y="-437.0" type="qcurve"/>
    </contour>
  </outline>
</glyph>
<glyph name="greater" format="2">
  <advance width="1920"/>
  <outline>
    <contour>
      <point x="1722.0" y="985.0" type="line"/>
      <point x="1722.0" y="515.0" type="line"/>
      <point x="262.0" y="20.0" type="line"/>
      <point x="257.0" y="534.0" type="line"/>
      <point x="1000.0" y="740.0" type="line"/>
      <point x="257.0" y="986.0" type="line"/>
      <point x="262.0" y="1496.0" type="line"/>
    </contour>
  </outline>
</glyph>
<glyph name="h" format="2">
  <advance width="1650"/>
  <outline>
    <contour>
      <point x="115.0" y="0.0" type="line"/>
      <point x="115.0" y="1540.0" type="line"/>
      <point x="665.0" y="1540.0" type="line"/>
      <point x="675.0" y="0.0" type="line"/>
    </contour>
    <contour>
      <point x="473.0" y="500.0" type="line"/>
      <point x="480.0" y="691.0"/>
      <point x="776.0" y="1080.0"/>
      <point x="1032.0" y="1080.0" type="qcurve" smooth="yes"/>
      <point x="1275.0" y="1080.0"/>
      <point x="1544.0" y="816.0"/>
      <point x="1544.0" y="605.0" type="qcurve" smooth="yes"/>
      <point x="1544.0" y="0.0" type="line"/>
      <point x="983.0" y="0.0" type="line"/>
      <point x="983.0" y="577.0" type="line" smooth="yes"/>
      <point x="983.0" y="631.0"/>
      <point x="883.0" y="662.0"/>
      <point x="824.0" y="662.0" type="qcurve" smooth="yes"/>
      <point x="759.0" y="662.0"/>
      <point x="577.0" y="511.0"/>
      <point x="513.0" y="379.0" type="qcurve"/>
    </contour>
  </outline>
</glyph>
<glyph name="j" format="2">
  <advance width="808"/>
  <outline>
    <contour>
      <point x="698" y="197.0" type="line" smooth="yes"/>
      <point x="698.0" y="-162"/>
      <point x="277" y="-468.0"/>
      <point x="59" y="-468" type="qcurve" smooth="yes"/>
      <point x="-101" y="-468.0"/>
      <point x="-195" y="-458.0"/>
      <point x="-226" y="-449.0" type="qcurve"/>
      <point x="-223" y="-33.0" type="line"/>
      <point x="-204" y="-38.0"/>
      <point x="-139" y="-53.0"/>
      <point x="-89" y="-53.0" type="qcurve" smooth="yes"/>
      <point x="1" y="-53.0"/>
      <point x="148" y="82.0"/>
      <point x="148" y="271.0" type="qcurve" smooth="yes"/>
      <point x="148.0" y="1020.0" type="line"/>
      <point x="698.0" y="1020.0" type="line"/>
    </contour>
    <contour>
      <point x="421.0" y="1141" type="line" smooth="yes"/>
      <point x="564.0" y="1141"/>
      <point x="714.0" y="1268"/>
      <point x="714.0" y="1368" type="qcurve" smooth="yes"/>
      <point x="714.0" y="1382" type="line" smooth="yes"/>
      <point x="714.0" y="1482"/>
      <point x="567.0" y="1611"/>
      <point x="421.0" y="1611" type="qcurve" smooth="yes"/>
      <point x="415.0" y="1611" type="line" smooth="yes"/>
      <point x="280.0" y="1611"/>
      <point x="131.0" y="1482"/>
      <point x="131.0" y="1382" type="qcurve" smooth="yes"/>
      <point x="131.0" y="1368" type="line" smooth="yes"/>
      <point x="131.0" y="1266"/>
      <point x="276.0" y="1141"/>
      <point x="415.0" y="1141" type="qcurve" smooth="yes"/>
    </contour>
    <contour>
      <point x="516.0" y="618.0" type="line"/>
      <point x="184.0" y="598.0" type="line"/>
      <point x="184.0" y="1000.0" type="line"/>
      <point x="516.0" y="1020.0" type="line"/>
    </contour>
  </outline>
</glyph>
<glyph name="k" format="2">
  <advance width="1725"/>
  <outline>
    <contour>
      <point x="133.0" y="0.0" type="line"/>
      <point x="133.0" y="1540.0" type="line"/>
      <point x="691.0" y="1540.0" type="line"/>
      <point x="691.0" y="0.0" type="line"/>
    </contour>
    <contour>
      <point x="1045.0" y="558.0" type="line"/>
      <point x="691.0" y="374.0" type="line"/>
      <point x="691.0" y="750.0" type="line"/>
      <point x="757.0" y="776.0" type="line"/>
      <point x="1195.0" y="1040.0" type="line"/>
      <point x="1801.0" y="1040.0" type="line"/>
      <point x="1262.0" y="638.0" type="line"/>
    </contour>
    <contour>
      <point x="1168.0" y="841.0" type="line"/>
      <point x="1864.0" y="0.0" type="line"/>
      <point x="1235.0" y="0.0" type="line"/>
      <point x="720.0" y="607.0" type="line"/>
    </contour>
  </outline>
</glyph>
<glyph name="l" format="2">
  <advance width="833"/>
  <outline>
    <contour>
      <point x="115.0" y="339.0" type="qcurve" smooth="yes"/>
      <point x="126.0" y="1539.0" type="line"/>
      <point x="676.0" y="1539.0" type="line"/>
      <point x="676.0" y="1.0" type="line"/>
      <point x="359.0" y="1.0"/>
      <point x="113" y="159"/>
    </contour>
    <contour>
      <point x="626.0" y="64.0" type="line"/>
      <point x="489.0" y="21.0" type="line"/>
      <point x="188.0" y="435.0" type="line"/>
      <point x="626.0" y="500.0" type="line"/>
    </contour>
  </outline>
</glyph>
<glyph name="m" format="2">
  <advance width="2500"/>
  <outline>
    <contour>
      <point x="155.0" y="0.0" type="line"/>
      <point x="155.0" y="1040.0" type="line"/>
      <point x="705.0" y="1040.0" type="line"/>
      <point x="715.0" y="0.0" type="line"/>
    </contour>
    <contour>
      <point x="489.0" y="470.0" type="line"/>
      <point x="496.0" y="661.0"/>
      <point x="818.0" y="1080.0"/>
      <point x="1094.0" y="1080.0" type="qcurve" smooth="yes"/>
      <point x="1287.0" y="1080.0"/>
      <point x="1553.0" y="816.0"/>
      <point x="1555.0" y="605.0" type="qcurve" smooth="yes"/>
      <point x="1555.0" y="0.0" type="line"/>
      <point x="995.0" y="0.0" type="line"/>
      <point x="995.0" y="587.0" type="line" smooth="yes"/>
      <point x="995.0" y="641.0"/>
      <point x="895.0" y="672.0"/>
      <point x="890.0" y="672.0" type="qcurve" smooth="yes"/>
      <point x="801.0" y="672.0"/>
      <point x="593.0" y="507.0"/>
      <point x="529.0" y="375.0" type="qcurve"/>
    </contour>
    <contour>
      <point x="1307.0" y="554.0" type="line"/>
      <point x="1314.0" y="718.0"/>
      <point x="1670.0" y="1080.0"/>
      <point x="1919.0" y="1080.0" type="qcurve" smooth="yes"/>
      <point x="2116.0" y="1080.0"/>
      <point x="2383.0" y="816.0"/>
      <point x="2385.0" y="605.0" type="qcurve" smooth="yes"/>
      <point x="2385.0" y="0.0" type="line"/>
      <point x="1824.0" y="0.0" type="line"/>
      <point x="1824.0" y="587.0" type="line" smooth="yes"/>
      <point x="1824.0" y="641.0"/>
      <point x="1724.0" y="672.0"/>
      <point x="1719.0" y="672.0" type="qcurve" smooth="yes"/>
      <point x="1630.0" y="672.0"/>
      <point x="1422.0" y="507.0"/>
      <point x="1358.0" y="375.0" type="qcurve"/>
    </contour>
  </outline>
</glyph>
<glyph name="n" format="2">
  <advance width="1650"/>
  <outline>
    <contour>
      <point x="115.0" y="0.0" type="line"/>
      <point x="115.0" y="1040.0" type="line"/>
      <point x="655.0" y="1040.0" type="line"/>
      <point x="675.0" y="0.0" type="line"/>
    </contour>
    <contour>
      <point x="630.0" y="611" type="line"/>
      <point x="636.0" y="802"/>
      <point x="910.0" y="1081"/>
      <point x="1121.0" y="1081" type="qcurve" smooth="yes"/>
      <point x="1322.0" y="1081"/>
      <point x="1547" y="817"/>
      <point x="1544.0" y="606" type="qcurve" smooth="yes"/>
      <point x="1544.0" y="0.0" type="line"/>
      <point x="983.0" y="0.0" type="line"/>
      <point x="983" y="565" type="line" smooth="yes"/>
      <point x="983.0" y="615.0"/>
      <point x="924" y="661"/>
      <point x="868" y="661" type="qcurve" smooth="yes"/>
      <point x="829" y="661"/>
      <point x="690" y="578"/>
      <point x="652" y="505" type="qcurve"/>
    </contour>
  </outline>
</glyph>
<glyph name="numbersign" format="2">
  <advance width="1774"/>
  <outline>
    <contour>
      <point x="198.0" y="0.0" type="line"/>
      <point x="428.0" y="1500.0" type="line"/>
      <point x="878.0" y="1500.0" type="line"/>
      <point x="648.0" y="0.0" type="line"/>
    </contour>
    <contour>
      <point x="1612.0" y="210.0" type="line"/>
      <point x="82.0" y="210.0" type="line"/>
      <point x="82.0" y="710.0" type="line"/>
      <point x="1612.0" y="710.0" type="line"/>
    </contour>
    <contour>
      <point x="1682.0" y="805.0" type="line"/>
      <point x="132.0" y="805.0" type="line"/>
      <point x="142.0" y="1305.0" type="line"/>
      <point x="1692.0" y="1305.0" type="line"/>
    </contour>
    <contour>
      <point x="928.0" y="0.0" type="line"/>
      <point x="1158.0" y="1500.0" type="line"/>
      <point x="1608.0" y="1500.0" type="line"/>
      <point x="1378.0" y="0.0" type="line"/>
    </contour>
  </outline>
</glyph>
<glyph name="o" format="2">
  <advance width="1766"/>
  <outline>
    <contour>
      <point x="875.0" y="-24.0" type="line" smooth="yes"/>
      <point x="501.0" y="-24.0"/>
      <point x="60.0" y="272.0"/>
      <point x="60.0" y="512.0" type="qcurve" smooth="yes"/>
      <point x="60.0" y="529.0" type="line" smooth="yes"/>
      <point x="60.0" y="778.0"/>
      <point x="500.0" y="1081.0"/>
      <point x="871.0" y="1081.0" type="qcurve" smooth="yes"/>
      <point x="879.0" y="1081.0" type="line" smooth="yes"/>
      <point x="1267.0" y="1081.0"/>
      <point x="1707.0" y="782.0"/>
      <point x="1707.0" y="527.0" type="qcurve" smooth="yes"/>
      <point x="1707.0" y="516.0" type="line" smooth="yes"/>
      <point x="1707.0" y="272.0"/>
      <point x="1262.0" y="-24.0"/>
      <point x="883.0" y="-24.0" type="qcurve" smooth="yes"/>
    </contour>
    <contour>
      <point x="886.0" y="309.0" type="line" smooth="yes"/>
      <point x="1012.0" y="309.0"/>
      <point x="1134.0" y="364.0"/>
      <point x="1134.0" y="451.0" type="qcurve" smooth="yes"/>
      <point x="1134.0" y="614.0" type="line" smooth="yes"/>
      <point x="1134.0" y="696.0"/>
      <point x="1020.0" y="747.0"/>
      <point x="886.0" y="747.0" type="qcurve" smooth="yes"/>
      <point x="882.0" y="747.0" type="line" smooth="yes"/>
      <point x="737.0" y="747.0"/>
      <point x="640.0" y="705.0"/>
      <point x="640.0" y="615.0" type="qcurve" smooth="yes"/>
      <point x="640.0" y="453.0" type="line" smooth="yes"/>
      <point x="640.0" y="364.0"/>
      <point x="741.0" y="309.0"/>
      <point x="882.0" y="309.0" type="qcurve" smooth="yes"/>
    </contour>
  </outline>
</glyph>
<glyph name="one" format="2">
  <advance width="726"/>
  <outline>
    <contour>
      <point x="72.0" y="0.0" type="line"/>
      <point x="72.0" y="1500.0" type="line"/>
      <point x="653.0" y="1500.0" type="line"/>
      <point x="653.0" y="0.0" type="line"/>
    </contour>
  </outline>
</glyph>
<glyph name="p" format="2">
  <advance width="1853"/>
  <outline>
    <contour>
      <point x="115.0" y="-470.0" type="line"/>
      <point x="115.0" y="1040.0" type="line"/>
      <point x="655.0" y="1040.0" type="line"/>
      <point x="675.0" y="-470.0" type="line"/>
    </contour>
    <contour>
      <point x="658" y="770.0" type="line" smooth="yes"/>
      <point x="658" y="857.0"/>
      <point x="943" y="1091"/>
      <point x="1213" y="1091.0" type="qcurve" smooth="yes"/>
      <point x="1224" y="1091.0" type="line" smooth="yes"/>
      <point x="1514" y="1091"/>
      <point x="1793" y="780"/>
      <point x="1793" y="539.0" type="qcurve" smooth="yes"/>
      <point x="1793" y="524.0" type="line" smooth="yes"/>
      <point x="1793" y="285"/>
      <point x="1497" y="-22"/>
      <point x="1211" y="-22.0" type="qcurve" smooth="yes"/>
      <point x="1193" y="-22.0" type="line" smooth="yes"/>
      <point x="927" y="-22"/>
      <point x="658" y="115.0"/>
      <point x="658" y="192.0" type="qcurve" smooth="yes"/>
    </contour>
    <contour>
      <point x="656" y="630.0" type="qcurve" smooth="yes"/>
      <point x="656" y="428.0" type="line" smooth="yes"/>
      <point x="656" y="331.0"/>
      <point x="850" y="291.0"/>
      <point x="939" y="291.0" type="qcurve" smooth="yes"/>
      <point x="947" y="291.0" type="line" smooth="yes"/>
      <point x="1077" y="291.0"/>
      <point x="1223.0" y="355.0"/>
      <point x="1223.0" y="438.0" type="qcurve" smooth="yes"/>
      <point x="1223.0" y="620.0" type="line" smooth="yes"/>
      <point x="1223.0" y="708.0"/>
      <point x="1077" y="753.0"/>
      <point x="953" y="753.0" type="qcurve" smooth="yes"/>
      <point x="944" y="753.0" type="line" smooth="yes"/>
      <point x="841" y="753.0"/>
      <point x="656" y="667.0"/>
    </contour>
  </outline>
</glyph>
<glyph name="parenleft" format="2">
  <advance width="1040"/>
  <outline>
    <contour>
      <point x="667.0" y="-383.0" type="line"/>
      <point x="-41.0" y="34.0"/>
      <point x="-40.0" y="1187.0"/>
      <point x="651.0" y="1607.0" type="qcurve"/>
      <point x="996.0" y="1268.0" type="line"/>
      <point x="503.0" y="938.0"/>
      <point x="565.0" y="221.0"/>
      <point x="1017.0" y="-69.0" type="qcurve"/>
    </contour>
  </outline>
</glyph>
<glyph name="parenright" format="2">
  <advance width="1040"/>
  <outline>
    <contour>
      <point x="373.0" y="-383.0" type="qcurve"/>
      <point x="23.0" y="-69.0" type="line"/>
      <point x="475.0" y="221.0"/>
      <point x="537.0" y="938.0"/>
      <point x="44.0" y="1268.0" type="qcurve"/>
      <point x="389.0" y="1607.0" type="line"/>
      <point x="1080.0" y="1187.0"/>
      <point x="1081.0" y="34.0"/>
    </contour>
  </outline>
</glyph>
<glyph name="percent" format="2">
  <advance width="2709"/>
  <outline>
    <contour>
      <point x="606.0" y="569.0" type="line" smooth="yes"/>
      <point x="349.0" y="569.0"/>
      <point x="-13.0" y="829.0"/>
      <point x="-13.0" y="1036.0" type="qcurve" smooth="yes"/>
      <point x="-13.0" y="1068.0" type="line" smooth="yes"/>
      <point x="-13.0" y="1275.0"/>
      <point x="345.0" y="1546.0"/>
      <point x="603.0" y="1546.0" type="qcurve" smooth="yes"/>
      <point x="609.0" y="1546.0" type="line" smooth="yes"/>
      <point x="871.0" y="1546.0"/>
      <point x="1232.0" y="1275.0"/>
      <point x="1232.0" y="1068.0" type="qcurve" smooth="yes"/>
      <point x="1232.0" y="1036.0" type="line" smooth="yes"/>
      <point x="1232.0" y="829.0"/>
      <point x="876.0" y="569.0"/>
      <point x="613.0" y="569.0" type="qcurve" smooth="yes"/>
    </contour>
    <contour>
      <point x="613.0" y="1004.0" type="line" smooth="yes"/>
      <point x="686.0" y="1004.0"/>
      <point x="764.0" y="1030.0"/>
      <point x="764.0" y="1049.0" type="qcurve" smooth="yes"/>
      <point x="764.0" y="1053.0" type="line" smooth="yes"/>
      <point x="764.0" y="1074.0"/>
      <point x="687.0" y="1100.0"/>
      <point x="613.0" y="1100.0" type="qcurve" smooth="yes"/>
      <point x="611.0" y="1100.0" type="line" smooth="yes"/>
      <point x="540.0" y="1100.0"/>
      <point x="464.0" y="1074.0"/>
      <point x="464.0" y="1053.0" type="qcurve" smooth="yes"/>
      <point x="464.0" y="1049.0" type="line" smooth="yes"/>
      <point x="464.0" y="1030.0"/>
      <point x="540.0" y="1004.0"/>
      <point x="611.0" y="1004.0" type="qcurve" smooth="yes"/>
    </contour>
    <contour>
      <point x="2086.0" y="-35.0" type="line" smooth="yes"/>
      <point x="1829.0" y="-35.0"/>
      <point x="1477.0" y="225.0"/>
      <point x="1477.0" y="432.0" type="qcurve" smooth="yes"/>
      <point x="1477.0" y="464.0" type="line" smooth="yes"/>
      <point x="1477.0" y="671.0"/>
      <point x="1825.0" y="942.0"/>
      <point x="2083.0" y="942.0" type="qcurve" smooth="yes"/>
      <point x="2089.0" y="942.0" type="line" smooth="yes"/>
      <point x="2351.0" y="942.0"/>
      <point x="2722.0" y="671.0"/>
      <point x="2722.0" y="464.0" type="qcurve" smooth="yes"/>
      <point x="2722.0" y="432.0" type="line" smooth="yes"/>
      <point x="2722.0" y="225.0"/>
      <point x="2356.0" y="-35.0"/>
      <point x="2093.0" y="-35.0" type="qcurve" smooth="yes"/>
    </contour>
    <contour>
      <point x="2093.0" y="386.0" type="line" smooth="yes"/>
      <point x="2166.0" y="386.0"/>
      <point x="2244.0" y="412.0"/>
      <point x="2244.0" y="431.0" type="qcurve" smooth="yes"/>
      <point x="2244.0" y="435.0" type="line" smooth="yes"/>
      <point x="2244.0" y="456.0"/>
      <point x="2167.0" y="482.0"/>
      <point x="2093.0" y="482.0" type="qcurve" smooth="yes"/>
      <point x="2091.0" y="482.0" type="line" smooth="yes"/>
      <point x="2020.0" y="482.0"/>
      <point x="1944.0" y="456.0"/>
      <point x="1944.0" y="435.0" type="qcurve" smooth="yes"/>
      <point x="1944.0" y="431.0" type="line" smooth="yes"/>
      <point x="1944.0" y="412.0"/>
      <point x="2020.0" y="386.0"/>
      <point x="2091.0" y="386.0" type="qcurve" smooth="yes"/>
    </contour>
    <contour>
      <point x="662.0" y="0.0" type="line"/>
      <point x="1632.0" y="1500.0" type="line"/>
      <point x="2012.0" y="1500.0" type="line"/>
      <point x="1052.0" y="0.0" type="line"/>
    </contour>
  </outline>
</glyph>
<glyph name="q" format="2">
  <advance width="1838"/>
  <outline>
    <contour>
      <point x="1732.0" y="-480.0" type="line"/>
      <point x="1172.0" y="-480.0" type="line"/>
      <point x="1182.0" y="1060.0" type="line"/>
      <point x="1732.0" y="1060.0" type="line"/>
    </contour>
    <contour>
      <point x="1235.0" y="762.0" type="qcurve" smooth="yes"/>
      <point x="1235.0" y="258.0" type="line" smooth="yes"/>
      <point x="1235.0" y="177.0"/>
      <point x="919.0" y="-25.0"/>
      <point x="686.0" y="-25.0" type="qcurve" smooth="yes"/>
      <point x="677.0" y="-25.0" type="line" smooth="yes"/>
      <point x="391.0" y="-25.0"/>
      <point x="60.0" y="284.0"/>
      <point x="60.0" y="506.0" type="qcurve" smooth="yes"/>
      <point x="60.0" y="541.0" type="line" smooth="yes"/>
      <point x="60.0" y="762.0"/>
      <point x="406.0" y="1083.0"/>
      <point x="691.0" y="1083.0" type="qcurve" smooth="yes"/>
      <point x="700.0" y="1083.0" type="line" smooth="yes"/>
      <point x="965.0" y="1083.0"/>
      <point x="1235.0" y="885.0"/>
    </contour>
    <contour>
      <point x="1186" y="617.0" type="line" smooth="yes"/>
      <point x="1186" y="707.0"/>
      <point x="1024" y="755.0"/>
      <point x="898" y="755.0" type="qcurve" smooth="yes"/>
      <point x="891" y="755.0" type="line" smooth="yes"/>
      <point x="767" y="755.0"/>
      <point x="613.0" y="693.0"/>
      <point x="613.0" y="617.0" type="qcurve" smooth="yes"/>
      <point x="613.0" y="415.0" type="line" smooth="yes"/>
      <point x="613.0" y="343.0"/>
      <point x="770" y="287.0"/>
      <point x="891" y="287.0" type="qcurve" smooth="yes"/>
      <point x="898" y="287.0" type="line" smooth="yes"/>
      <point x="1016" y="287.0"/>
      <point x="1186" y="341.0"/>
      <point x="1186" y="415.0" type="qcurve" smooth="yes"/>
    </contour>
  </outline>
</glyph>
<glyph name="r" format="2">
  <advance width="1176"/>
  <outline>
    <contour>
      <point x="155.0" y="0.0" type="line"/>
      <point x="155.0" y="1040.0" type="line"/>
      <point x="718.0" y="1040.0" type="line"/>
      <point x="718.0" y="0.0" type="line"/>
    </contour>
    <contour>
      <point x="504.0" y="712.0" type="line"/>
      <point x="615.0" y="856.0"/>
      <point x="967.0" y="1082.0"/>
      <point x="1118.0" y="1082.0" type="qcurve" smooth="yes"/>
      <point x="1148.0" y="1082.0"/>
      <point x="1199.0" y="1079.0"/>
      <point x="1216.0" y="1076.0" type="qcurve"/>
      <point x="1216.0" y="607.0" type="line"/>
      <point x="1195.0" y="611.0"/>
      <point x="1137.0" y="616.0"/>
      <point x="1108.0" y="616.0" type="qcurve" smooth="yes"/>
      <point x="933.0" y="616.0"/>
      <point x="639.0" y="541.0"/>
      <point x="533.0" y="437.0" type="qcurve"/>
    </contour>
  </outline>
</glyph>
<glyph name="seven" format="2">
  <advance width="1293"/>
  <outline>
    <contour>
      <point x="-38.0" y="1500.0" type="line"/>
      <point x="1339.0" y="1500.0" type="line"/>
      <point x="1340.0" y="1086.0" type="line"/>
      <point x="692.0" y="0.0" type="line"/>
      <point x="100.0" y="0.0" type="line"/>
      <point x="784.0" y="1085.0" type="line"/>
      <point x="-38.0" y="1085.0" type="line"/>
    </contour>
  </outline>
</glyph>
<glyph name="six" format="2">
  <advance width="1526"/>
  <outline>
    <contour>
      <point x="664.0" y="501.0" type="qcurve"/>
      <point x="664.0" y="407.0" type="line" smooth="yes"/>
      <point x="664.0" y="370.0"/>
      <point x="705.0" y="338.0"/>
      <point x="802.0" y="338.0" type="qcurve" smooth="yes"/>
      <point x="804.0" y="338.0" type="line" smooth="yes"/>
      <point x="872.0" y="338.0"/>
      <point x="934.0" y="376.0"/>
      <point x="934.0" y="400.0" type="qcurve" smooth="yes"/>
      <point x="934.0" y="558.0" type="line" smooth="yes"/>
      <point x="934.0" y="597.0"/>
      <point x="856.0" y="634.0"/>
      <point x="788.0" y="634.0" type="qcurve" smooth="yes"/>
      <point x="785.0" y="634.0" type="line" smooth="yes"/>
      <point x="730.0" y="634.0"/>
      <point x="613.0" y="561.0"/>
      <point x="663.0" y="565.0" type="qcurve" smooth="yes"/>
      <point x="664.0" y="475.0" type="line"/>
      <point x="442.0" y="485.0" type="line"/>
      <point x="442.0" y="519.0" type="line" smooth="yes"/>
      <point x="442.0" y="708.0"/>
      <point x="718.0" y="960.0"/>
      <point x="945.0" y="960.0" type="qcurve" smooth="yes"/>
      <point x="951.0" y="960.0" type="line" smooth="yes"/>
      <point x="1235.0" y="960.0"/>
      <point x="1522.0" y="695.0"/>
      <point x="1522.0" y="489.0" type="qcurve" smooth="yes"/>
      <point x="1522.0" y="454.0" type="line" smooth="yes"/>
      <point x="1522.0" y="255.0"/>
      <point x="1147.0" y="-25.0"/>
      <point x="829.0" y="-25.0" type="qcurve" smooth="yes"/>
      <point x="820.0" y="-25.0" type="line" smooth="yes"/>
      <point x="471.0" y="-25.0"/>
      <point x="111.0" y="273.0"/>
      <point x="107.0" y="545.0" type="qcurve" smooth="yes"/>
      <point x="106.0" y="710.0" type="line" smooth="yes"/>
      <point x="100.0" y="1059.0"/>
      <point x="779.0" y="1531.0"/>
      <point x="1198.0" y="1540.0" type="qcurve" smooth="yes"/>
      <point x="1274.0" y="1540.0" type="line"/>
      <point x="1274.0" y="1095.0" type="line"/>
      <point x="1223.0" y="1095.0" type="line" smooth="yes"/>
      <point x="863.0" y="1095.0"/>
      <point x="636.0" y="733.0"/>
    </contour>
  </outline>
</glyph>
<glyph name="t" format="2">
  <advance width="1083"/>
  <outline>
    <contour>
      <point x="1044.0" y="649.0" type="line"/>
      <point x="7.0" y="649.0" type="line"/>
      <point x="7.0" y="1028.0" type="line"/>
      <point x="1044.0" y="1028.0" type="line"/>
    </contour>
    <contour>
      <point x="758" y="459.0" type="line" smooth="yes"/>
      <point x="758" y="431.0"/>
      <point x="802" y="383.0"/>
      <point x="837" y="383.0" type="qcurve" smooth="yes"/>
      <point x="876" y="383.0"/>
      <point x="932" y="397.0"/>
      <point x="978" y="419.0" type="qcurve"/>
      <point x="1113.0" y="90.0" type="line"/>
      <point x="1055.0" y="47.0"/>
      <point x="850" y="-22"/>
      <point x="684" y="-22" type="qcurve" smooth="yes"/>
      <point x="472" y="-22"/>
      <point x="197" y="185"/>
      <point x="197.0" y="411.0" type="qcurve" smooth="yes"/>
      <point x="197.0" y="1335.0" type="line"/>
      <point x="758" y="1335.0" type="line"/>
    </contour>
  </outline>
</glyph>
<glyph name="two" format="2">
  <advance width="1442"/>
  <outline>
    <contour>
      <point x="1435.0" y="0.0" type="line"/>
      <point x="24.0" y="0.0" type="line"/>
      <point x="24.0" y="352.0" type="line"/>
      <point x="618.0" y="797.0" type="line" smooth="yes"/>
      <point x="699.0" y="851.0"/>
      <point x="819.0" y="966.0"/>
      <point x="819.0" y="1017.0" type="qcurve" smooth="yes"/>
      <point x="819.0" y="1068.0" type="line" smooth="yes"/>
      <point x="819.0" y="1089.0"/>
      <point x="758.0" y="1110.0"/>
      <point x="721.0" y="1110.0" type="qcurve" smooth="yes"/>
      <point x="709.0" y="1110.0" type="line" smooth="yes"/>
      <point x="651.0" y="1110.0"/>
      <point x="598.0" y="1082.0"/>
      <point x="603.0" y="1072.0" type="qcurve" smooth="yes"/>
      <point x="605.0" y="908.0" type="line"/>
      <point x="58.0" y="910.0" type="line"/>
      <point x="58.0" y="1104.0" type="line" smooth="yes"/>
      <point x="54.0" y="1271.0"/>
      <point x="393.0" y="1527.0"/>
      <point x="693.0" y="1527.0" type="qcurve" smooth="yes"/>
      <point x="757.0" y="1527.0" type="line" smooth="yes"/>
      <point x="1054.0" y="1527.0"/>
      <point x="1398.0" y="1318.0"/>
      <point x="1398.0" y="1128.0" type="qcurve" smooth="yes"/>
      <point x="1398.0" y="1116.0" type="line" smooth="yes"/>
      <point x="1398.0" y="949.0"/>
      <point x="1240.0" y="706.0"/>
      <point x="1129.0" y="613.0" type="qcurve" smooth="yes"/>
      <point x="755.0" y="435.0" type="line"/>
      <point x="1435.0" y="435.0" type="line"/>
    </contour>
  </outline>
</glyph>
<glyph name="u" format="2">
  <advance width="1650"/>
  <outline>
    <contour>
      <point x="1495.0" y="1036.0" type="line"/>
      <point x="1495.0" y="-4.0" type="line"/>
      <point x="945.0" y="-4.0" type="line"/>
      <point x="935.0" y="1036.0" type="line"/>
    </contour>
    <contour>
      <point x="1187.0" y="496.0" type="line"/>
      <point x="1172.0" y="305.0"/>
      <point x="834.0" y="-29.0"/>
      <point x="588.0" y="-29.0" type="qcurve" smooth="yes"/>
      <point x="345.0" y="-29.0"/>
      <point x="116.0" y="235.0"/>
      <point x="116.0" y="446.0" type="qcurve" smooth="yes"/>
      <point x="116.0" y="1036.0" type="line"/>
      <point x="677.0" y="1036.0" type="line"/>
      <point x="677.0" y="461.0" type="line" smooth="yes"/>
      <point x="677.0" y="407.0"/>
      <point x="777.0" y="366.0"/>
      <point x="836.0" y="366.0" type="qcurve" smooth="yes"/>
      <point x="901.0" y="366.0"/>
      <point x="1087.0" y="470.0"/>
      <point x="1147.0" y="604.0" type="qcurve"/>
    </contour>
  </outline>
</glyph>
<glyph name="v" format="2">
  <advance width="1473"/>
  <outline>
    <contour>
      <point x="461.0" y="1.0" type="line"/>
      <point x="-80.0" y="1041.0" type="line"/>
      <point x="465.0" y="1041.0" type="line"/>
      <point x="753.0" y="458.0" type="line"/>
      <point x="1010.0" y="1041.0" type="line"/>
      <point x="1553.0" y="1041.0" type="line"/>
      <point x="1018.0" y="1.0" type="line"/>
    </contour>
  </outline>
</glyph>
<glyph name="w" format="2">
  <advance width="2082"/>
  <outline>
    <contour>
      <point x="388.0" y="1.0" type="line"/>
      <point x="-60.0" y="1041.0" type="line"/>
      <point x="425.0" y="1041.0" type="line"/>
      <point x="681.0" y="688.0" type="line"/>
      <point x="818.0" y="1041.0" type="line"/>
      <point x="1310.0" y="1041.0" type="line"/>
      <point x="1469.0" y="688.0" type="line"/>
      <point x="1697.0" y="1041.0" type="line"/>
      <point x="2142.0" y="1041.0" type="line"/>
      <point x="1710.0" y="1.0" type="line"/>
      <point x="1210.0" y="1.0" type="line"/>
      <point x="1048.0" y="461.0" type="line"/>
      <point x="889.0" y="1.0" type="line"/>
    </contour>
  </outline>
</glyph>
<glyph name="y" format="2">
  <advance width="1415"/>
  <outline>
    <contour>
      <point x="473.0" y="-2.0" type="qcurve"/>
      <point x="-81.0" y="1040.0" type="line"/>
      <point x="466.0" y="1040.0" type="line"/>
      <point x="724.0" y="423.0" type="line"/>
      <point x="980.0" y="1040.0" type="line"/>
      <point x="1495.0" y="1040.0" type="line"/>
      <point x="1017.0" y="33.0" type="line" smooth="yes"/>
      <point x="874" y="-268"/>
      <point x="467.0" y="-487.0"/>
      <point x="196.0" y="-487.0" type="qcurve" smooth="yes"/>
      <point x="131" y="-487"/>
      <point x="31.0" y="-487.0"/>
      <point x="-15.0" y="-472.0" type="qcurve"/>
      <point x="1.0" y="-55.0" type="line"/>
      <point x="34.0" y="-71.0"/>
      <point x="165" y="-102"/>
      <point x="239" y="-102.0" type="qcurve" smooth="yes"/>
      <point x="333" y="-102.0"/>
      <point x="456.0" y="-55.0"/>
    </contour>
  </outline>
</glyph>
<glyph name="z" format="2">
  <advance width="1337"/>
  <outline>
    <contour>
      <point x="1319.0" y="1.0" type="line"/>
      <point x="38.0" y="1.0" type="line"/>
      <point x="33.0" y="307.0" type="line"/>
      <point x="644.0" y="691.0" type="line"/>
      <point x="39.0" y="691.0" type="line"/>
      <point x="39.0" y="1041.0" type="line"/>
      <point x="1298.0" y="1041.0" type="line"/>
      <point x="1298.0" y="756.0" type="line"/>
      <point x="653.0" y="347.0" type="line"/>
      <point x="1319.0" y="347.0" type="line"/>
    </contour>
  </outline>
</glyph>
<glyph name="zero" format="2">
  <advance width="1681"/>
  <outline>
    <contour>
      <point x="839.0" y="-25.0" type="line" smooth="yes"/>
      <point x="501.0" y="-25.0"/>
      <point x="81.0" y="402.0"/>
      <point x="81.0" y="724.0" type="qcurve" smooth="yes"/>
      <point x="81.0" y="775.0" type="line" smooth="yes"/>
      <point x="81.0" y="1097.0"/>
      <point x="496.0" y="1524.0"/>
      <point x="834.0" y="1524.0" type="qcurve" smooth="yes"/>
      <point x="843.0" y="1524.0" type="line" smooth="yes"/>
      <point x="1188.0" y="1524.0"/>
      <point x="1600.0" y="1097.0"/>
      <point x="1600.0" y="775.0" type="qcurve" smooth="yes"/>
      <point x="1600.0" y="724.0" type="line" smooth="yes"/>
      <point x="1600.0" y="402.0"/>
      <point x="1194.0" y="-25.0"/>
      <point x="848.0" y="-25.0" type="qcurve" smooth="yes"/>
    </contour>
    <contour>
      <point x="912" y="333" type="line" smooth="yes"/>
      <point x="946" y="333"/>
      <point x="966" y="364"/>
      <point x="966" y="440" type="qcurve" smooth="yes"/>
      <point x="966" y="1031" type="line" smooth="yes"/>
      <point x="966" y="1108"/>
      <point x="934" y="1136"/>
      <point x="879" y="1136" type="qcurve" smooth="yes"/>
      <point x="796" y="1136.0" type="line" smooth="yes"/>
      <point x="743" y="1136.0"/>
      <point x="716.0" y="1104.0"/>
      <point x="716.0" y="1014.0" type="qcurve" smooth="yes"/>
      <point x="716" y="434" type="line" smooth="yes"/>
      <point x="716" y="362"/>
      <point x="741" y="333"/>
      <point x="791" y="333" type="qcurve" smooth="yes"/>
    </contour>
  </outline>
</glyph>
